#!OML:ASF F:\VICON\USERDATA\INSTALL\rory3\rory3.ASF
:FULLY-SPECIFIED
:DEGREES
31
root 1.05457 17.822 -16.2887 6.08588 -0.969499 -0.413395
lowerback 4.73486 -0.246494 -1.01919
upperback -0.825364 -0.308005 2.38979
thorax -3.48974 -0.108208 3.06499
lowerneck -18.1284 -4.08201 -9.11849
upperneck 16.0726 -4.45864 6.62692
head 8.33642 -2.00527 3.16758
rclavicle -1.08835e-014 8.74653e-015
rhumerus -31.8839 -9.17833 -81.0929
rradius 30.9446
rwrist 5.31411
rhand -11.7586 12.5354
rfingers 7.12502
rthumb 14.2896 -16.9529
lclavicle -1.08835e-014 8.74653e-015
lhumerus -29.933 8.97865 86.303
lradius 26.2283
lwrist -12.244
lhand -13.6155 25.254
lfingers 7.12502
lthumb 12.4999 54.8602
rfemur -9.38189 3.56745 21.646
rtibia 20.2021
rfoot -10.912 -13.1941
rtoes 2.75436
lfemur -9.61698 -3.33295 -20.2903
ltibia 19.6588
lfoot -13.0216 5.59106
ltoes 2.40089
32
root 1.05397 17.8204 -16.29 6.10268 -1.00554 -0.38031
lowerback 4.7773 -0.209758 -1.05375
upperback -0.832935 -0.261071 2.38355
thorax -3.52426 -0.0837157 3.07496
lowerneck -17.9206 -4.04212 -9.12127
upperneck 15.9043 -4.41416 6.62308
head 8.23963 -1.98772 3.17258
rclavicle -5.06901e-015 2.46493e-014
rhumerus -31.9765 -9.129 -81.0851
rradius 31.0901
rwrist 5.16122
rhand -11.4015 12.3194
rfingers 7.12502
rthumb 14.6337 -17.1443
lclavicle -5.06901e-015 2.46493e-014
lhumerus -29.9276 8.86035 86.3204
lradius 26.2006
lwrist -12.2705
lhand -14.6698 20.0371
lfingers 7.12502
lthumb 11.4833 49.7026
rfemur -9.43042 3.56296 21.6092
rtibia 20.2384
rfoot -10.9042 -13.1941
rtoes 2.96014
lfemur -9.65074 -3.35361 -20.3343
ltibia 19.6141
lfoot -12.9424 5.69028
ltoes 1.76937
33
root 1.0537 17.8165 -16.2888 6.14172 -1.05587 -0.412762
lowerback 4.73161 -0.178649 -1.02062
upperback -0.795285 -0.217766 2.39559
thorax -3.46225 -0.0637693 3.06464
lowerneck -17.8555 -4.00411 -9.20872
upperneck 15.7994 -4.36185 6.73203
head 8.19323 -1.95809 3.23042
rclavicle 8.59744e-015 5.56597e-015
rhumerus -31.923 -9.09437 -81.1035
rradius 31.1129
rwrist 5.0891
rhand -11.5065 12.3147
rfingers 7.12502
rthumb 14.5325 -17.1563
lclavicle 8.59744e-015 5.56597e-015
lhumerus -29.8718 8.8864 86.3223
lradius 26.1146
lwrist -12.437
lhand -14.6553 20.4543
lfingers 7.12502
lthumb 11.4972 50.119
rfemur -9.49819 3.63754 21.6436
rtibia 20.2677
rfoot -10.8975 -13.2734
rtoes 2.63683
lfemur -9.71922 -3.3451 -20.3052
ltibia 19.5992
lfoot -12.8924 5.79804
ltoes 1.41676
34
root 1.05306 17.8161 -16.2879 6.15511 -1.05941 -0.410187
lowerback 4.72814 -0.174917 -1.02055
upperback -0.745244 -0.213283 2.40284
thorax -3.40878 -0.0625517 3.07131
lowerneck -17.934 -4.02742 -9.31661
upperneck 15.8181 -4.37798 6.82954
head 8.21947 -1.96123 3.27893
rclavicle 6.36111e-015 1.74931e-014
rhumerus -31.7958 -9.06134 -81.1208
rradius 31.0333
rwrist 5.25685
rhand -11.7768 12.4642
rfingers 7.12502
rthumb 14.272 -17.0254
lclavicle 6.36111e-015 1.74931e-014
lhumerus -29.7848 8.98988 86.3051
lradius 26.0092
lwrist -12.6227
lhand -14.7904 19.8507
lfingers 7.12502
lthumb 11.3669 49.5226
rfemur -9.52598 3.71064 21.6429
rtibia 20.2699
rfoot -10.8497 -13.3428
rtoes 3.4028
lfemur -9.74276 -3.33348 -20.3007
ltibia 19.6296
lfoot -12.941 5.75193
ltoes 1.61865
35
root 1.05452 17.8167 -16.2873 6.12304 -1.07854 -0.360972
lowerback 4.82729 -0.160327 -1.06253
upperback -0.727751 -0.196097 2.41202
thorax -3.4475 -0.0527914 3.10401
lowerneck -17.98 -4.0678 -9.43193
upperneck 15.8948 -4.40858 6.86512
head 8.25965 -1.9788 3.30646
rclavicle -7.95139e-016 -7.15625e-015
rhumerus -31.8268 -9.01271 -81.0846
rradius 31.0711
rwrist 5.48575
rhand -11.8518 12.5763
rfingers 7.12502
rthumb 14.1998 -16.9184
lclavicle -7.95139e-016 -7.15625e-015
lhumerus -29.7237 8.88757 86.3788
lradius 25.9656
lwrist -12.5148
lhand -13.5144 24.8644
lfingers 7.12502
lthumb 12.5973 54.4645
rfemur -9.50246 3.61964 21.5767
rtibia 20.2655
rfoot -10.7967 -13.2263
rtoes 2.71229
lfemur -9.65694 -3.33532 -20.3629
ltibia 19.7013
lfoot -13.0434 5.70855
ltoes 2.31932
36
root 1.0554 17.82 -16.2916 6.10185 -1.04847 -0.362072
lowerback 4.96327 -0.146287 -1.02543
upperback -0.714768 -0.175531 2.39747
thorax -3.51208 -0.0428041 3.06745
lowerneck -17.9408 -4.09112 -9.38631
upperneck 15.8407 -4.44869 6.83752
head 8.2364 -1.9981 3.28403
rclavicle -4.57205e-015 1.82882e-014
rhumerus -31.8643 -8.94376 -81.1556
rradius 31.2279
rwrist 5.44232
rhand -11.8723 12.3007
rfingers 7.12502
rthumb 14.1801 -17.1954
lclavicle -4.57205e-015 1.82882e-014
lhumerus -29.65 8.76223 86.4156
lradius 25.9708
lwrist -12.5208
lhand -13.3254 26.0292
lfingers 7.12502
lthumb 12.7795 55.6181
rfemur -9.48404 3.54643 21.5736
rtibia 20.2715
rfoot -10.8074 -13.1089
rtoes 3.47561
lfemur -9.67039 -3.36994 -20.3646
ltibia 19.7867
lfoot -13.0663 5.68084
ltoes 2.62333
37
root 1.05434 17.8195 -16.2955 6.05636 -0.982568 -0.314338
lowerback 5.04147 -0.172949 -1.04309
upperback -0.606882 -0.214335 2.37752
thorax -3.44211 -0.0638089 3.05952
lowerneck -17.9992 -4.07443 -9.29816
upperneck 15.7292 -4.42558 6.77122
head 8.20343 -1.98666 3.24836
rclavicle -4.87022e-015 0
rhumerus -31.6949 -8.71684 -81.3364
rradius 31.4177
rwrist 5.05832
rhand -11.7718 11.5038
rfingers 7.12502
rthumb 14.2769 -17.9855
lclavicle -4.87022e-015 0
lhumerus -29.4876 8.73827 86.4225
lradius 26.0716
lwrist -12.5504
lhand -13.3371 26.1849
lfingers 7.12502
lthumb 12.7683 55.7745
rfemur -9.44444 3.52848 21.543
rtibia 20.3128
rfoot -10.8922 -12.9577
rtoes 3.44564
lfemur -9.70363 -3.38355 -20.4115
ltibia 19.8477
lfoot -13.0133 5.65924
ltoes 2.25107
38
root 1.05417 17.8174 -16.2979 6.06728 -1.019 -0.318441
lowerback 5.11762 -0.181705 -1.02022
upperback -0.551347 -0.225278 2.37742
thorax -3.42695 -0.0704001 3.04758
lowerneck -18.3323 -4.08033 -9.19539
upperneck 15.996 -4.41272 6.62783
head 8.3443 -1.98403 3.18417
rclavicle -2.68359e-015 -1.82882e-014
rhumerus -31.6331 -8.65993 -81.3938
rradius 31.6226
rwrist 5.27746
rhand -11.2774 10.3856
rfingers 7.12502
rthumb 14.7533 -19.0693
lclavicle -2.68359e-015 -1.82882e-014
lhumerus -29.4547 8.63047 86.44
lradius 26.2075
lwrist -12.4631
lhand -14.5076 20.5803
lfingers 7.12502
lthumb 11.6397 50.237
rfemur -9.50448 3.53797 21.5509
rtibia 20.3696
rfoot -10.8261 -13.2195
rtoes 2.21672
lfemur -9.74546 -3.38371 -20.4104
ltibia 19.9155
lfoot -13.0192 5.70696
ltoes 2.20496
39
root 1.05486 17.8156 -16.3059 6.10013 -1.0305 -0.222566
lowerback 5.37754 -0.164409 -1.09087
upperback -0.609151 -0.207039 2.33579
thorax -3.63424 -0.0573916 3.0458
lowerneck -18.6231 -4.13408 -9.05764
upperneck 16.2732 -4.47325 6.45201
head 8.48643 -2.01819 3.09354
rclavicle 9.24349e-015 -6.36111e-015
rhumerus -31.7856 -8.62182 -81.4149
rradius 31.8538
rwrist 5.7721
rhand -15.0871 15.8287
rfingers 7.12502
rthumb 11.0807 -13.8588
lclavicle 9.24349e-015 -6.36111e-015
lhumerus -29.5835 8.54597 86.4078
lradius 26.3122
lwrist -12.4253
lhand -13.1432 26.4353
lfingers 7.12502
lthumb 12.9552 56.0131
rfemur -9.64869 3.57351 21.4284
rtibia 20.4565
rfoot -10.8209 -13.3433
rtoes 2.02326
lfemur -9.83542 -3.44081 -20.5167
ltibia 19.9803
lfoot -13.0068 5.74701
ltoes 2.51107
40
root 1.05653 17.8121 -16.3156 6.08877 -0.915191 -0.19431
lowerback 5.66321 -0.215191 -1.06587
upperback -0.651364 -0.272497 2.32901
thorax -3.83516 -0.0877773 3.03359
lowerneck -18.6019 -4.12065 -9.03001
upperneck 16.2175 -4.45188 6.4029
head 8.46019 -2.0115 3.07465
rclavicle 1.47101e-014 3.97569e-015
rhumerus -31.9263 -8.41134 -81.4892
rradius 31.9588
rwrist 5.56914
rhand -11.2197 10.8689
rfingers 7.12502
rthumb 14.8088 -18.582
lclavicle 1.47101e-014 3.97569e-015
lhumerus -29.6363 8.78087 86.3069
lradius 26.2672
lwrist -12.4874
lhand -13.4631 24.4415
lfingers 7.12502
lthumb 12.6468 54.0386
rfemur -9.73175 3.52435 21.4019
rtibia 20.536
rfoot -10.8012 -13.4387
rtoes 2.19846
lfemur -9.94386 -3.41019 -20.541
ltibia 20.068
lfoot -12.98 5.65576
ltoes 2.43492
